<svg xmlns="http://www.w3.org/2000/svg" xmlns:xlink="http://www.w3.org/1999/xlink" width="200" height="200" class="icon" p-id="4523" t="1627184893235" version="1.1" viewBox="0 0 1024 1024"><defs><style type="text/css">@font-face{font-family:feedback-iconfont;src:url(//at.alicdn.com/t/font_1031158_1uhr8ri0pk5.eot?#iefix) format(&quot;embedded-opentype&quot;),url(//at.alicdn.com/t/font_1031158_1uhr8ri0pk5.woff2) format(&quot;woff2&quot;),url(//at.alicdn.com/t/font_1031158_1uhr8ri0pk5.woff) format(&quot;woff&quot;),url(//at.alicdn.com/t/font_1031158_1uhr8ri0pk5.ttf) format(&quot;truetype&quot;),url(//at.alicdn.com/t/font_1031158_1uhr8ri0pk5.svg#iconfont) format(&quot;svg&quot;)}</style></defs><path fill="#F4DCCB" d="M512 2.56C231.424 2.56 3.584 229.888 3.584 510.976S231.424 1018.88 512 1018.88s508.416-227.328 508.416-508.416S793.088 2.56 512 2.56z m0 941.568c-239.616 0-433.664-194.048-433.664-433.664C78.336 270.848 272.384 76.8 512 76.8s433.664 194.048 433.664 433.664-194.048 433.664-433.664 433.664z" p-id="4524"/><path fill="#FF9D4D" d="M698.88 598.528c-11.264 0-22.528 2.56-32.256 7.68l-113.152-196.096c18.944-13.312 31.744-35.328 31.744-60.416 0-40.448-32.768-73.216-73.216-73.216s-73.216 32.768-73.216 73.216c0 25.088 12.8 47.104 31.744 60.416l-113.152 196.096c-9.728-4.608-20.992-7.68-32.256-7.68-40.448 0-73.216 32.768-73.216 73.216s32.768 73.216 73.216 73.216c37.376 0 68.096-28.16 72.704-64.512h228.352c4.096 36.352 35.328 64.512 72.704 64.512 40.448 0 73.216-32.768 73.216-73.216s-33.28-73.216-73.216-73.216zM512 425.984l121.856 210.944H390.656L512 425.984z" p-id="4525"/></svg>