<svg xmlns="http://www.w3.org/2000/svg" xmlns:xlink="http://www.w3.org/1999/xlink" width="27" height="24" class="icon" p-id="6293" t="1627184963540" version="1.1" viewBox="0 0 1152 1024"><defs><style type="text/css">@font-face{font-family:feedback-iconfont;src:url(//at.alicdn.com/t/font_1031158_1uhr8ri0pk5.eot?#iefix) format(&quot;embedded-opentype&quot;),url(//at.alicdn.com/t/font_1031158_1uhr8ri0pk5.woff2) format(&quot;woff2&quot;),url(//at.alicdn.com/t/font_1031158_1uhr8ri0pk5.woff) format(&quot;woff&quot;),url(//at.alicdn.com/t/font_1031158_1uhr8ri0pk5.ttf) format(&quot;truetype&quot;),url(//at.alicdn.com/t/font_1031158_1uhr8ri0pk5.svg#iconfont) format(&quot;svg&quot;)}</style></defs><path d="M352 185.6h704c38.4 0 64-25.6 64-64s-25.6-64-64-64h-704c-38.4 0-64 25.6-64 64s25.6 64 64 64z" p-id="6294"/><path d="M96 121.6m-64 0a64 64 0 1 0 128 0 64 64 0 1 0-128 0Z" p-id="6295"/><path d="M1056 441.6h-704c-38.4 0-64 25.6-64 64s25.6 64 64 64h704c38.4 0 64-25.6 64-64s-25.6-64-64-64z" p-id="6296"/><path d="M96 505.6m-64 0a64 64 0 1 0 128 0 64 64 0 1 0-128 0Z" p-id="6297"/><path d="M1056 825.6h-704c-38.4 0-64 25.6-64 64s25.6 64 64 64h704c38.4 0 64-25.6 64-64s-25.6-64-64-64z" p-id="6298"/><path d="M96 889.6m-64 0a64 64 0 1 0 128 0 64 64 0 1 0-128 0Z" p-id="6299"/></svg>