<svg xmlns="http://www.w3.org/2000/svg" xmlns:xlink="http://www.w3.org/1999/xlink" width="27" height="24" class="icon" p-id="5351" t="1627184930997" version="1.1" viewBox="0 0 1170 1024"><defs><style type="text/css">@font-face{font-family:feedback-iconfont;src:url(//at.alicdn.com/t/font_1031158_1uhr8ri0pk5.eot?#iefix) format(&quot;embedded-opentype&quot;),url(//at.alicdn.com/t/font_1031158_1uhr8ri0pk5.woff2) format(&quot;woff2&quot;),url(//at.alicdn.com/t/font_1031158_1uhr8ri0pk5.woff) format(&quot;woff&quot;),url(//at.alicdn.com/t/font_1031158_1uhr8ri0pk5.ttf) format(&quot;truetype&quot;),url(//at.alicdn.com/t/font_1031158_1uhr8ri0pk5.svg#iconfont) format(&quot;svg&quot;)}</style></defs><path d="M146.285714 0h877.714286a146.285714 146.285714 0 0 1 146.285714 146.285714v731.428572a146.285714 146.285714 0 0 1-146.285714 146.285714H146.285714a146.285714 146.285714 0 0 1-146.285714-146.285714V146.285714a146.285714 146.285714 0 0 1 146.285714-146.285714z m219.428572 585.142857a146.285714 146.285714 0 1 0 0-292.571428 146.285714 146.285714 0 0 0 0 292.571428z m-206.994286 146.285714h413.988571a219.501714 219.501714 0 0 0-413.988571 0zM731.428571 365.714286v73.142857h292.571429V365.714286h-292.571429z m0 219.428571v73.142857h292.571429V585.142857h-292.571429z" p-id="5352"/></svg>